<?xml version="1.0"?>
<svg xmlns="http://www.w3.org/2000/svg" viewBox="0 0 24 24">
    <path d="M 13.40625 2.03125 C 14.49425 4.22425 9.49425 5.58025 9.03125 7.40625 C 8.60725 9.08425 11.997 11.03125 12 11.03125 C 11.486 10.33725 11.10975 9.7685 10.59375 8.6875 C 9.72075 6.8595 15.75925 4.96825 13.40625 2.03125 z M 17 5.03125 C 17 5.03125 13.194 5.27775 13 7.59375 C 12.914 8.62475 14.00025 9.1865 14.03125 9.9375 C 14.05725 10.5505 13.375 11.03125 13.375 11.03125 C 13.375 11.03125 14.493 10.8725 14.875 9.9375 C 15.298 8.9005 14.15425 8.1435 14.28125 7.3125 C 14.40225 6.5175 17 5.03125 17 5.03125 z M 9.90625 11.03125 C 9.90625 11.03125 6 11.00675 6 12.09375 C 6 13.22975 11.098 13.29175 14.75 12.59375 C 14.75 12.59375 15.58475 12.15025 15.84375 11.90625 C 13.45075 12.38525 8.15625 12.2285 8.15625 11.8125 C 8.15625 11.4295 9.90625 11.03125 9.90625 11.03125 z M 17.6875 11.0625 C 17.258389 11.044518 16.779625 11.179625 16.375 11.46875 C 17.22 11.28575 17.9375 11.80625 17.9375 12.40625 C 17.9375 13.75525 16 15.03125 16 15.03125 C 16 15.03125 19 14.68675 19 12.46875 C 19 11.5525 18.402686 11.092471 17.6875 11.0625 z M 8.53125 13.03125 C 7.92025 13.03025 7 13.534 7 14 C 7 14.937 11.597 15.65025 15 14.28125 L 13.8125 13.53125 C 11.5055 14.28825 7.27225 14.04425 8.53125 13.03125 z M 9.375 15.03125 C 8.535 15.03125 8 15.61825 8 16.03125 C 8 17.31025 13.013 17.33125 15 16.03125 L 13.75 15.25 C 12.267 15.93 8.517 16.01725 9.375 15.03125 z M 5.75 17 C 4.5529453 16.962348 4 17.562875 4 18.0625 C 4 20.7195 17 20.62125 17 17.90625 C 17 17.45525 16.4945 17.228 16.3125 17.125 C 17.3735 19.721 5.5625 19.532 5.5625 18 C 5.5625 17.651 6.17175 17.30675 6.96875 17.46875 C 6.96875 17.46875 6.6975 17.1295 6.3125 17.0625 C 6.11475 17.028375 5.9210078 17.005379 5.75 17 z M 19 19 C 16.937 21.02 11.257 22.247 6 21 C 11.282 23.141 18.975 21.479 19 19 z"/>
</svg>
